<?xml version="1.0" standalone="no"?>
<!DOCTYPE svg PUBLIC "-//W3C//DTD SVG 20010904//EN"
 "http://www.w3.org/TR/2001/REC-SVG-20010904/DTD/svg10.dtd">
<svg version="1.0" xmlns="http://www.w3.org/2000/svg"
 width="500.000000pt" height="500.000000pt" viewBox="0 0 500.000000 500.000000"
 preserveAspectRatio="xMidYMid meet">

<g transform="translate(0.000000,500.000000) scale(0.100000,-0.100000)"
fill="#000000" stroke="none">
<path d="M1995 4990 c-389 -21 -682 -68 -930 -152 -118 -39 -287 -114 -293
-130 -2 -4 -8 -8 -13 -8 -24 0 -198 -129 -264 -195 -66 -66 -195 -240 -195
-264 0 -5 -4 -11 -8 -13 -16 -6 -91 -175 -130 -293 -125 -370 -169 -821 -158
-1605 5 -401 9 -462 46 -757 28 -213 88 -468 140 -590 6 -13 15 -35 21 -50 77
-188 214 -381 350 -492 109 -90 124 -101 137 -101 6 0 12 -4 12 -9 0 -12 213
-117 310 -151 222 -80 475 -127 850 -161 215 -19 1092 -16 1310 5 338 32 549
72 759 142 113 38 253 102 318 146 23 15 44 28 48 28 37 0 355 319 355 356 0
3 13 24 28 47 44 65 108 205 146 318 70 210 110 421 142 759 21 218 24 1095 5
1310 -34 375 -81 628 -161 850 -34 97 -139 310 -151 310 -5 0 -9 6 -9 13 0 12
-11 27 -101 136 -111 136 -304 273 -491 350 -16 6 -38 15 -50 21 -168 71 -427
123 -843 170 -122 14 -973 21 -1180 10z m2075 -1560 l0 -110 110 0 110 0 0
-90 0 -90 -110 0 -110 0 0 -115 0 -115 -90 0 -90 0 0 115 0 115 -115 0 -115 0
0 90 0 90 115 0 115 0 0 110 0 110 90 0 90 0 0 -110z m-2590 -307 c24 -54 522
-1158 541 -1200 l18 -43 -97 0 -97 0 -85 188 -86 187 -279 3 -280 2 -85 -187
-85 -188 -99 -3 c-77 -2 -97 0 -93 10 3 7 123 274 267 593 144 319 271 599
281 623 l18 42 74 0 c71 0 74 -1 87 -27z m1510 -613 l0 -630 -90 0 -90 0 0 51
0 50 -29 -21 c-17 -11 -56 -33 -88 -48 -53 -25 -68 -27 -183 -27 -124 0 -126
0 -204 38 -173 82 -276 248 -276 442 0 206 135 392 329 455 60 19 85 22 168
17 115 -6 149 -15 226 -61 l57 -35 0 200 0 199 90 0 90 0 0 -630z m608 345
c106 -25 193 -82 235 -154 l18 -30 -68 -51 -68 -52 -20 28 c-58 82 -144 122
-233 109 -91 -14 -132 -51 -132 -120 0 -69 34 -91 206 -136 228 -59 308 -126
321 -269 14 -155 -89 -283 -255 -319 -169 -36 -339 15 -449 133 l-56 60 34 28
c19 16 51 41 73 55 37 27 38 27 52 8 66 -93 137 -130 244 -129 113 1 168 37
177 116 9 78 -53 123 -227 168 -141 36 -185 57 -233 110 -67 74 -83 154 -51
259 43 147 240 231 432 186z"/>
<path d="M1300 2672 c-51 -114 -95 -213 -97 -219 -4 -10 38 -13 192 -13 154 0
196 3 192 13 -15 35 -188 422 -191 424 -1 2 -44 -90 -96 -205z"/>
<path d="M2391 2640 c-73 -33 -118 -76 -152 -145 -29 -60 -31 -70 -27 -147 6
-127 57 -206 168 -263 53 -27 178 -32 237 -10 63 24 136 94 164 158 32 71 33
182 2 248 -29 64 -85 123 -146 153 -66 34 -179 36 -246 6z"/>
</g>
</svg>
